<svg width="128" height="128" viewBox="0 0 128 128" fill="none" xmlns="http://www.w3.org/2000/svg">
<g clip-path="url(#clip0_4_55)">
<path d="M12.3092 107.829L11.1819 103.396C9.18314 102.551 7.13818 101.82 5.05678 101.205L4.91449 103.265L4.33742 100.995C1.7561 100.26 0 99.9361 0 99.9361C0 99.9361 2.37149 108.929 7.34715 115.805L13.1442 116.82L8.64065 117.467C9.26653 118.218 9.93915 118.929 10.6545 119.596C17.8919 126.294 25.953 129.367 28.6595 126.459C31.3659 123.552 27.6928 115.766 20.4555 109.069C18.2118 106.993 15.3934 105.326 12.572 104.015L12.3092 107.829Z" fill="#F2F2F2"/>
<path d="M23.0301 103.014L24.3633 98.6384C23.0902 96.8853 21.719 95.2053 20.2561 93.6062L19.0663 95.2964L19.7488 93.056C17.9202 91.0966 16.5848 89.9146 16.5848 89.9146C16.5848 89.9146 13.953 98.8355 14.6472 107.285L19.0835 111.142L14.8918 109.375C15.0384 110.341 15.2458 111.296 15.5128 112.235C18.2359 121.699 23.5434 128.484 27.3673 127.39C31.1913 126.296 32.0839 117.738 29.3608 108.274C28.5167 105.341 26.9676 102.462 25.2325 99.8851L23.0301 103.014Z" fill="#F2F2F2"/>
<path d="M89.3177 30.3233H88.6145V11.1167C88.6145 9.65683 88.3261 8.21126 87.7658 6.86253C87.2055 5.51379 86.3842 4.28829 85.3488 3.25601C84.3134 2.22373 83.0843 1.40488 81.7315 0.846214C80.3787 0.287548 78.9288 7.62939e-06 77.4646 7.62939e-06H36.6497C33.6925 7.62939e-06 30.8565 1.17123 28.7655 3.25601C26.6744 5.3408 25.4997 8.16837 25.4997 11.1167V116.487C25.4997 117.947 25.7881 119.393 26.3485 120.742C26.9088 122.09 27.7301 123.316 28.7655 124.348C29.8008 125.38 31.03 126.199 32.3828 126.758C33.7356 127.317 35.1854 127.604 36.6497 127.604H77.4646C80.4217 127.604 83.2577 126.433 85.3487 124.348C87.4397 122.263 88.6144 119.436 88.6144 116.487V43.9949H89.3176L89.3177 30.3233Z" fill="#E6E6E6"/>
<path d="M77.9145 2.8911H72.5872C72.8322 3.49001 72.9257 4.13982 72.8595 4.78326C72.7933 5.4267 72.5694 6.04402 72.2075 6.58085C71.8456 7.11768 71.3568 7.55753 70.7843 7.86165C70.2117 8.16577 69.5729 8.32482 68.9241 8.3248H45.5417C44.893 8.32476 44.2542 8.16567 43.6817 7.86153C43.1092 7.55738 42.6205 7.11753 42.2586 6.58071C41.8968 6.04389 41.6729 5.42658 41.6067 4.78317C41.5405 4.13976 41.634 3.48999 41.879 2.8911H36.903C34.6946 2.8911 32.5767 3.76575 31.0151 5.32265C29.4536 6.87955 28.5763 8.99115 28.5763 11.1929V116.411C28.5763 118.612 29.4536 120.724 31.0151 122.281C32.5767 123.838 34.6946 124.712 36.903 124.712H77.9145C80.1228 124.712 82.2408 123.838 83.8023 122.281C85.3639 120.724 86.2412 118.612 86.2412 116.411V11.1928C86.2411 8.99101 85.3638 6.87945 83.8023 5.32259C82.2407 3.76573 80.1228 2.8911 77.9145 2.8911Z" fill="white"/>
<path d="M52.1828 44.8045C52.1826 44.069 52.3768 43.3465 52.7458 42.7096C53.1147 42.0728 53.6454 41.544 54.2844 41.1766C53.6457 40.8088 52.9211 40.6152 52.1835 40.6151C51.4459 40.615 50.7213 40.8085 50.0825 41.1762C49.4437 41.5438 48.9132 42.0727 48.5444 42.7095C48.1756 43.3464 47.9814 44.0688 47.9814 44.8042C47.9814 45.5396 48.1756 46.2621 48.5444 46.8989C48.9132 47.5358 49.4437 48.0646 50.0825 48.4323C50.7213 48.7999 51.4459 48.9934 52.1835 48.9933C52.9211 48.9933 53.6457 48.7996 54.2844 48.4318C53.6454 48.0645 53.1148 47.5358 52.7458 46.8991C52.3769 46.2623 52.1827 45.5399 52.1828 44.8045Z" fill="#CCCCCC"/>
<path d="M57.4648 44.8045C57.4647 44.069 57.6589 43.3465 58.0278 42.7096C58.3968 42.0727 58.9275 41.544 59.5665 41.1766C58.9278 40.8088 58.2032 40.6152 57.4656 40.6151C56.728 40.615 56.0034 40.8085 55.3646 41.1762C54.7258 41.5438 54.1953 42.0727 53.8265 42.7095C53.4577 43.3464 53.2635 44.0688 53.2635 44.8042C53.2635 45.5396 53.4577 46.2621 53.8265 46.8989C54.1953 47.5358 54.7258 48.0646 55.3646 48.4323C56.0034 48.7999 56.728 48.9934 57.4656 48.9933C58.2032 48.9933 58.9278 48.7996 59.5665 48.4318C58.9275 48.0645 58.3968 47.5358 58.0279 46.8991C57.6589 46.2623 57.4647 45.5399 57.4648 44.8045Z" fill="#CCCCCC"/>
<path d="M62.627 48.9934C64.9475 48.9934 66.8286 47.1179 66.8286 44.8043C66.8286 42.4907 64.9475 40.6152 62.627 40.6152C60.3064 40.6152 58.4253 42.4907 58.4253 44.8043C58.4253 47.1179 60.3064 48.9934 62.627 48.9934Z" fill="#FFBD59"/>
<path d="M69.649 57.8886H45.1607C44.9276 57.8883 44.7041 57.7959 44.5393 57.6315C44.3744 57.4671 44.2817 57.2443 44.2814 57.0119V32.5967C44.2817 32.3643 44.3744 32.1414 44.5393 31.9771C44.7041 31.8127 44.9276 31.7203 45.1607 31.72H69.649C69.8821 31.7203 70.1056 31.8127 70.2705 31.9771C70.4353 32.1414 70.528 32.3643 70.5283 32.5967V57.0119C70.528 57.2443 70.4353 57.4671 70.2705 57.6315C70.1056 57.7959 69.8821 57.8883 69.649 57.8886ZM45.1607 32.0709C45.0209 32.071 44.8868 32.1265 44.7878 32.2251C44.6889 32.3237 44.6333 32.4574 44.6332 32.5969V57.012C44.6333 57.1515 44.6889 57.2852 44.7878 57.3838C44.8868 57.4824 45.0209 57.5379 45.1607 57.538H69.649C69.7888 57.5379 69.923 57.4824 70.0219 57.3838C70.1208 57.2852 70.1764 57.1515 70.1765 57.012V32.5969C70.1764 32.4574 70.1208 32.3237 70.0219 32.2251C69.923 32.1265 69.7888 32.071 69.649 32.0709H45.1607Z" fill="#CCCCCC"/>
<path d="M75.1168 76.604H37.5593V76.9547H75.1168V76.604Z" fill="#CCCCCC"/>
<path d="M38.7454 74.4143C39.4004 74.4143 39.9314 73.8849 39.9314 73.2318C39.9314 72.5786 39.4004 72.0492 38.7454 72.0492C38.0903 72.0492 37.5593 72.5786 37.5593 73.2318C37.5593 73.8849 38.0903 74.4143 38.7454 74.4143Z" fill="#FFBD59"/>
<path d="M75.1168 88.4288H37.5593V88.7795H75.1168V88.4288Z" fill="#CCCCCC"/>
<path d="M38.7454 86.2393C39.4004 86.2393 39.9314 85.7098 39.9314 85.0567C39.9314 84.4036 39.4004 83.8742 38.7454 83.8742C38.0903 83.8742 37.5593 84.4036 37.5593 85.0567C37.5593 85.7098 38.0903 86.2393 38.7454 86.2393Z" fill="#FFBD59"/>
<path d="M74.4295 101.894H62.5603C62.3552 101.894 62.1587 101.813 62.0137 101.668C61.8687 101.524 61.7872 101.328 61.787 101.123V96.9757C61.7872 96.7713 61.8687 96.5753 62.0137 96.4307C62.1587 96.2862 62.3552 96.2049 62.5603 96.2047H74.4295C74.6345 96.2049 74.8311 96.2862 74.976 96.4307C75.121 96.5753 75.2026 96.7713 75.2028 96.9757V101.123C75.2026 101.328 75.121 101.524 74.976 101.668C74.8311 101.813 74.6345 101.894 74.4295 101.894Z" fill="#FFBD59"/>
<path d="M42.6143 74.4143C43.2694 74.4143 43.8004 73.8849 43.8004 73.2318C43.8004 72.5786 43.2694 72.0492 42.6143 72.0492C41.9593 72.0492 41.4282 72.5786 41.4282 73.2318C41.4282 73.8849 41.9593 74.4143 42.6143 74.4143Z" fill="#FFBD59"/>
<path d="M46.4833 74.4143C47.1383 74.4143 47.6694 73.8849 47.6694 73.2318C47.6694 72.5786 47.1383 72.0492 46.4833 72.0492C45.8282 72.0492 45.2972 72.5786 45.2972 73.2318C45.2972 73.8849 45.8282 74.4143 46.4833 74.4143Z" fill="#FFBD59"/>
<path d="M42.6143 86.2393C43.2694 86.2393 43.8004 85.7098 43.8004 85.0567C43.8004 84.4036 43.2694 83.8742 42.6143 83.8742C41.9593 83.8742 41.4282 84.4036 41.4282 85.0567C41.4282 85.7098 41.9593 86.2393 42.6143 86.2393Z" fill="#FFBD59"/>
<path d="M46.4833 86.2393C47.1383 86.2393 47.6694 85.7098 47.6694 85.0567C47.6694 84.4036 47.1383 83.8742 46.4833 83.8742C45.8282 83.8742 45.2972 84.4036 45.2972 85.0567C45.2972 85.7098 45.8282 86.2393 46.4833 86.2393Z" fill="#FFBD59"/>
<path d="M127.522 128H4.13808C3.87396 128 3.66 127.906 3.66 127.791C3.66 127.676 3.87396 127.582 4.13808 127.582H127.522C127.786 127.582 128 127.676 128 127.791C128 127.907 127.786 128 127.522 128Z" fill="#3F3D56"/>
<path d="M97.0381 83.8616C97.1224 83.9 97.2034 83.9451 97.2805 83.9965L104.988 80.7166L105.263 78.6922L108.343 78.6735L108.161 83.3163L97.9879 85.9987C97.9664 86.0692 97.9408 86.1383 97.911 86.2057C97.7639 86.5186 97.5273 86.7812 97.231 86.9606C96.9348 87.1399 96.5919 87.2279 96.2456 87.2136C95.8993 87.1993 95.565 87.0833 95.2846 86.8802C95.0042 86.6771 94.7902 86.3959 94.6696 86.0719C94.5489 85.7479 94.527 85.3957 94.6065 85.0593C94.686 84.723 94.8635 84.4175 95.1165 84.1814C95.3696 83.9452 95.6869 83.7889 96.0288 83.732C96.3707 83.6751 96.7218 83.7202 97.0381 83.8616Z" fill="#FFB8B8"/>
<path d="M109.463 125.934H107.356L106.354 117.832L109.464 117.833L109.463 125.934Z" fill="#FFB8B8"/>
<path d="M105.851 125.334H109.915V127.885H103.293C103.293 127.208 103.563 126.56 104.042 126.081C104.522 125.603 105.173 125.334 105.851 125.334Z" fill="#2F2E41"/>
<path d="M117.657 125.341L115.56 125.547L113.766 117.582L116.86 117.278L117.657 125.341Z" fill="#FFB8B8"/>
<path d="M114.004 125.097L118.047 124.699L118.298 127.238L111.708 127.885C111.675 127.552 111.709 127.215 111.806 126.895C111.904 126.574 112.064 126.276 112.277 126.017C112.49 125.758 112.752 125.543 113.048 125.385C113.345 125.228 113.669 125.129 114.004 125.097Z" fill="#2F2E41"/>
<path d="M110.05 70.0989C112.381 70.0989 114.27 68.2148 114.27 65.8907C114.27 63.5666 112.381 61.6826 110.05 61.6826C107.719 61.6826 105.829 63.5666 105.829 65.8907C105.829 68.2148 107.719 70.0989 110.05 70.0989Z" fill="#FFB8B8"/>
<path d="M106.886 124.296C106.704 124.296 106.529 124.233 106.39 124.117C106.251 124.001 106.158 123.84 106.127 123.662C105.036 117.627 101.472 97.8928 101.387 97.3462C101.385 97.3336 101.384 97.3209 101.384 97.3082V95.8368C101.384 95.7832 101.401 95.731 101.432 95.6874L101.903 95.0298C101.925 94.9982 101.955 94.9721 101.989 94.9536C102.023 94.935 102.061 94.9245 102.099 94.9228C104.784 94.7973 113.576 94.4295 114.001 94.9586C114.427 95.4903 114.277 97.1014 114.242 97.419L114.244 97.4521L118.194 122.637C118.225 122.838 118.175 123.043 118.056 123.208C117.936 123.373 117.756 123.484 117.555 123.517L115.088 123.922C114.905 123.952 114.716 123.915 114.558 123.817C114.399 123.72 114.281 123.569 114.225 123.393C113.462 120.962 110.903 112.784 110.016 109.62C110.011 109.599 109.998 109.582 109.981 109.571C109.963 109.559 109.942 109.555 109.922 109.558C109.901 109.56 109.882 109.571 109.868 109.587C109.855 109.602 109.847 109.623 109.848 109.643C109.892 112.66 109.999 120.356 110.036 123.014L110.04 123.3C110.042 123.494 109.97 123.681 109.84 123.825C109.71 123.969 109.53 124.059 109.337 124.077L106.958 124.293C106.934 124.295 106.909 124.296 106.886 124.296Z" fill="#2F2E41"/>
<path d="M107.371 71.7535C106.634 72.1901 106.194 72.9924 105.941 73.8087C105.472 75.3201 105.191 76.8827 105.101 78.4621L104.834 83.1909L101.525 95.7274C104.393 98.1468 106.047 97.597 109.908 95.618C113.768 93.639 114.21 96.2778 114.21 96.2778L114.982 85.6108L116.085 73.9545C115.837 73.6573 115.557 73.3887 115.249 73.1537C114.23 72.3633 113.043 71.8139 111.78 71.5469C110.517 71.28 109.209 71.3024 107.956 71.6125L107.371 71.7535Z" fill="#FFBD59"/>
<path d="M106.296 86.3935C106.385 86.4269 106.471 86.4672 106.554 86.5141L114.175 82.7109L114.302 80.6506L117.445 80.4345L117.614 85.1312L107.429 88.4892C107.346 88.8449 107.156 89.1668 106.885 89.4123C106.614 89.6577 106.274 89.8151 105.911 89.8634C105.548 89.9117 105.179 89.8487 104.853 89.6827C104.527 89.5167 104.259 89.2556 104.085 88.9342C103.911 88.6127 103.84 88.2462 103.88 87.8832C103.92 87.5203 104.07 87.1781 104.31 86.9023C104.55 86.6265 104.869 86.4301 105.224 86.3392C105.578 86.2483 105.952 86.2673 106.296 86.3935Z" fill="#FFB8B8"/>
<path d="M116.029 74.0079C117.905 74.6677 118.235 81.8163 118.235 81.8163C116.029 80.6066 113.382 82.5861 113.382 82.5861C113.382 82.5861 112.83 80.7166 112.168 78.2972C111.968 77.6167 111.945 76.8968 112.099 76.2046C112.253 75.5124 112.581 74.8704 113.051 74.3383C113.051 74.3383 114.154 73.3477 116.029 74.0079Z" fill="#FFBD59"/>
<path d="M113.834 67.0036C113.308 66.5841 112.591 67.3466 112.591 67.3466L112.17 63.5715C112.17 63.5715 109.541 63.8855 107.858 63.4667C106.175 63.0478 105.912 64.9873 105.912 64.9873C105.825 64.2039 105.808 63.4143 105.86 62.6279C105.965 61.6841 107.332 60.7403 109.751 60.1111C112.17 59.4818 113.432 62.2084 113.432 62.2084C115.115 63.0472 114.36 67.4231 113.834 67.0036Z" fill="#2F2E41"/>
</g>
<defs>
<clipPath id="clip0_4_55">
<rect width="128" height="128" fill="white"/>
</clipPath>
</defs>
</svg>
