<svg width="128" height="128" viewBox="0 0 128 128" fill="none" xmlns="http://www.w3.org/2000/svg">
<g clip-path="url(#clip0_4_86)">
<path d="M122.929 7.34624e-05H84.5066C82.6524 -3.90075e-05 80.8534 0.7812 79.4053 2.21536C77.9572 3.64953 76.9461 5.65127 76.5383 7.89152L57.1243 114.548C56.9126 115.712 56.9088 116.918 57.1134 118.084C57.318 119.249 57.7259 120.345 58.3085 121.294C58.8911 122.243 59.6344 123.024 60.4862 123.58C61.338 124.136 62.2777 124.454 63.2393 124.513L102.738 126.923C104.853 127.052 106.934 126.224 108.592 124.592C110.25 122.961 111.373 120.638 111.749 118.057L122.763 42.6499L123.582 42.9398L125.69 28.6472L124.847 28.3861L127.921 7.33714C128.053 6.43554 128.022 5.50905 127.832 4.62372C127.641 3.73839 127.295 2.91602 126.819 2.21525C126.342 1.51448 125.747 0.952559 125.075 0.569559C124.403 0.186558 123.671 -0.008094 122.931 -0.000519553L122.929 7.34624e-05Z" fill="#3F3D56"/>
<path d="M89.5643 2.29941H85.0797C83.7917 2.29942 82.5424 2.84502 81.5392 3.84562C80.5361 4.84623 79.8394 6.24166 79.5648 7.80028L60.9295 113.587C60.8221 114.196 60.8222 114.826 60.9297 115.435C61.0372 116.045 61.2496 116.618 61.5523 117.116C61.855 117.614 62.241 118.025 62.6839 118.321C63.1267 118.618 63.616 118.792 64.1182 118.833L103.489 122.029C104.6 122.119 105.698 121.699 106.575 120.85C107.452 120.001 108.046 118.782 108.243 117.425L124.145 8.08449C124.248 7.3768 124.224 6.64976 124.075 5.95468C123.926 5.25959 123.656 4.6134 123.284 4.06171C122.912 3.51001 122.446 3.06626 121.92 2.76175C121.394 2.45725 120.821 2.29942 120.24 2.29941H115.986C115.574 2.29939 115.173 2.46752 114.847 2.77776C114.52 3.088 114.285 3.52305 114.177 4.01555C114.083 4.45049 113.875 4.83469 113.587 5.10862C113.298 5.38254 112.944 5.53091 112.581 5.53075H92.3823C91.6703 5.53072 90.9846 5.19791 90.4622 4.59885C89.9397 3.99978 89.6191 3.17859 89.5643 2.29941Z" fill="white"/>
<path d="M111.329 76.2531C111.405 76.2564 111.48 76.2254 111.54 76.166C111.599 76.1065 111.64 76.0225 111.654 75.9291L120.36 16.4136C120.368 16.357 120.367 16.2989 120.355 16.2432C120.344 16.1875 120.323 16.1355 120.294 16.0908C120.265 16.0465 120.228 16.0106 120.187 15.9857C120.145 15.9607 120.1 15.9474 120.054 15.9467L80.4426 15.3672H80.4389C80.367 15.3679 80.2974 15.3989 80.2416 15.455C80.1857 15.5111 80.1469 15.5891 80.1315 15.6761L69.8676 73.2599C69.8575 73.3161 69.8574 73.3743 69.8672 73.4306C69.8771 73.4868 69.8966 73.5398 69.9244 73.5858C69.952 73.6315 69.9874 73.6691 70.0281 73.6959C70.0687 73.7228 70.1136 73.7382 70.1596 73.7411L111.329 76.2531Z" fill="#E6E6E6"/>
<path d="M76.9538 80.1011C76.9178 80.1012 76.8828 80.1163 76.8546 80.144C76.8264 80.1718 76.8066 80.2106 76.7984 80.254L76.4275 82.2231C76.4222 82.2509 76.4219 82.2798 76.4265 82.3078C76.4311 82.3358 76.4406 82.3622 76.4543 82.3853C76.4679 82.4083 76.4854 82.4274 76.5056 82.4412C76.5258 82.455 76.5482 82.4633 76.5712 82.4654L97.5267 84.3101C97.5656 84.3131 97.604 84.2987 97.635 84.2693C97.6659 84.24 97.6872 84.1978 97.6949 84.1505L98.0516 81.8722C98.0559 81.8446 98.0554 81.8161 98.0501 81.7887C98.0449 81.7614 98.0349 81.7357 98.021 81.7134C98.007 81.6912 97.9894 81.6729 97.9693 81.6598C97.9492 81.6466 97.9271 81.639 97.9044 81.6373L76.9635 80.1015L76.9538 80.1011Z" fill="#E6E6E6"/>
<path d="M102.414 91.6242C102.451 91.628 102.489 91.6149 102.52 91.5875C102.55 91.56 102.572 91.5199 102.581 91.4743L103.036 89.1913C103.041 89.1633 103.042 89.1342 103.037 89.1059C103.033 89.0776 103.023 89.0509 103.01 89.0276C102.996 89.0043 102.978 88.985 102.958 88.971C102.938 88.957 102.915 88.9487 102.892 88.9467L76.1303 86.6285C76.094 86.6249 76.0578 86.637 76.0278 86.6627C75.9979 86.6884 75.976 86.7261 75.966 86.7695L75.4941 88.7423C75.4874 88.7705 75.4858 88.8003 75.4895 88.8293C75.4932 88.8583 75.5021 88.886 75.5156 88.9102C75.529 88.9345 75.5466 88.9547 75.5672 88.9695C75.5877 88.9842 75.6106 88.9931 75.6343 88.9955L102.414 91.6242Z" fill="#E6E6E6"/>
<path d="M100.976 98.9421C101.014 98.9458 101.052 98.9328 101.083 98.9054C101.113 98.8779 101.135 98.8378 101.144 98.7922L101.598 96.5092C101.604 96.4812 101.605 96.4521 101.6 96.4238C101.596 96.3955 101.586 96.3688 101.572 96.3455C101.559 96.3222 101.541 96.3028 101.521 96.2889C101.5 96.2749 101.478 96.2666 101.455 96.2645L74.6931 93.9464C74.6568 93.9428 74.6206 93.9549 74.5907 93.9806C74.5607 94.0063 74.5389 94.044 74.5288 94.0874L74.0569 96.0602C74.0502 96.0884 74.0486 96.1181 74.0523 96.1472C74.0561 96.1762 74.065 96.2039 74.0784 96.2281C74.0918 96.2524 74.1094 96.2726 74.13 96.2874C74.1505 96.3021 74.1735 96.311 74.1971 96.3134L100.976 98.9421Z" fill="#E6E6E6"/>
<path d="M54.577 124.705C54.577 126.36 42.3443 126.536 27.2885 127.702C12.2461 128.866 0 126.36 0 124.705C0 123.049 12.3033 119.719 27.2885 121.708C42.3443 123.706 54.577 123.049 54.577 124.705Z" fill="#E6E6E6"/>
<path d="M88.6511 111.452C88.6892 111.457 88.7274 111.445 88.7587 111.417C88.7899 111.39 88.8121 111.349 88.821 111.303L89.7812 106.546C89.7868 106.518 89.7875 106.489 89.7832 106.461C89.7789 106.433 89.7697 106.406 89.7562 106.383C89.7428 106.36 89.7254 106.34 89.7052 106.326C89.6851 106.312 89.6627 106.303 89.6397 106.301L73.2055 104.589C73.1671 104.586 73.129 104.599 73.098 104.628C73.0671 104.656 73.0451 104.697 73.0362 104.743L72.2172 109.308C72.2123 109.336 72.2121 109.364 72.2167 109.392C72.2213 109.419 72.2306 109.445 72.2439 109.468C72.2573 109.49 72.2744 109.509 72.2941 109.523C72.3138 109.537 72.3356 109.546 72.3582 109.548L88.6511 111.452Z" fill="#FFBD59"/>
<path d="M22.2936 92.0682C22.5005 91.8926 22.6738 91.6629 22.8013 91.3953C22.9288 91.1277 23.0073 90.8288 23.0314 90.5195C23.0555 90.2102 23.0246 89.8982 22.9407 89.6053C22.8569 89.3125 22.7222 89.046 22.5462 88.8246L23.2116 70.4275L19.8239 70.8984L20.0207 88.8935C19.7398 89.2841 19.5844 89.7888 19.5839 90.312C19.5835 90.8351 19.738 91.3403 20.0183 91.7316C20.2986 92.123 20.6851 92.3734 21.1045 92.4353C21.5239 92.4972 21.947 92.3663 22.2937 92.0674L22.2936 92.0682Z" fill="#A0616A"/>
<path d="M28.4739 123.211L30.4021 123.63L32.3078 114.619L29.7814 113.999L28.4739 123.211Z" fill="#A0616A"/>
<path d="M33.8064 126.657L27.7465 125.338L28.1581 122.438L31.8767 123.248C32.4977 123.383 33.0498 123.818 33.4117 124.458C33.7736 125.097 33.9156 125.889 33.8064 126.658L33.8064 126.657Z" fill="#2F2E41"/>
<path d="M23.1816 124.406H25.1393L26.0706 115.053H23.1812L23.1816 124.406Z" fill="#A0616A"/>
<path d="M28.9142 126.658L22.7614 126.658L22.7613 123.714L26.5369 123.714C27.1673 123.714 27.772 124.024 28.2179 124.576C28.6637 125.128 28.9142 125.877 28.9142 126.658Z" fill="#2F2E41"/>
<path d="M31.3493 121.054C31.3188 121.054 31.2883 121.051 31.258 121.047L28.9537 120.812C28.8488 120.797 28.7475 120.755 28.6559 120.69C28.5644 120.625 28.4845 120.537 28.4211 120.432C28.3578 120.328 28.3123 120.208 28.2873 120.081C28.2624 119.954 28.2586 119.822 28.2762 119.693L30.5637 105.714L29.1265 96.3241C29.1148 96.2478 29.0812 96.1793 29.0319 96.1313C28.9826 96.0833 28.921 96.0589 28.8584 96.0628C28.7957 96.0666 28.7363 96.0984 28.6912 96.1523C28.646 96.2061 28.618 96.2784 28.6125 96.3557L26.4949 120.213C26.4751 120.465 26.3773 120.697 26.2221 120.86C26.0669 121.024 25.8664 121.107 25.6629 121.091L23.492 120.991C23.3018 120.974 23.1231 120.872 22.9896 120.703C22.8562 120.534 22.7772 120.311 22.7677 120.075L22.9411 91.2449L34.1959 89.5024L34.9822 104.542L34.979 104.558L32.1061 120.316C32.0647 120.526 31.9677 120.713 31.8305 120.847C31.6933 120.98 31.5239 121.053 31.3493 121.054Z" fill="#2F2E41"/>
<path d="M26.6526 58.5066C28.8187 58.5066 30.5747 56.3318 30.5747 53.649C30.5747 50.9661 28.8187 48.7913 26.6526 48.7913C24.4866 48.7913 22.7306 50.9661 22.7306 53.649C22.7306 56.3318 24.4866 58.5066 26.6526 58.5066Z" fill="#A0616A"/>
<path d="M30.3481 93.4388C29.7347 93.4433 29.1331 93.2302 28.6144 92.8245C26.7141 91.3538 24.5566 91.9383 23.4395 92.4177C23.3286 92.4658 23.2104 92.4822 23.0936 92.4657C22.9769 92.4493 22.8647 92.4003 22.7654 92.3226C22.6673 92.2462 22.5843 92.1434 22.5228 92.0217C22.4613 91.9001 22.4229 91.7627 22.4103 91.62L20.3789 69.1472C20.0385 65.3819 21.8697 61.8418 24.7332 60.7297C24.8409 60.6879 24.9502 60.6483 25.0614 60.611C25.9525 60.3118 26.8857 60.2581 27.7953 60.4536C28.705 60.6492 29.569 61.0893 30.3265 61.7429C31.0982 62.4037 31.7436 63.266 32.2172 64.269C32.6908 65.272 32.9812 66.3914 33.0679 67.5484L34.7783 90.1719C34.7899 90.3184 34.7739 90.4662 34.7316 90.6037C34.6893 90.7412 34.6218 90.8647 34.5344 90.9644C33.9346 91.6511 32.1944 93.4386 30.3481 93.4388Z" fill="#FFBD59"/>
<path d="M24.1617 73.9664L19.5787 73.3422C19.4483 73.3244 19.3225 73.272 19.2099 73.1886C19.0973 73.1052 19.0006 72.9928 18.9262 72.8588C18.8519 72.7249 18.8017 72.5728 18.7792 72.4127C18.7566 72.2526 18.7622 72.0884 18.7955 71.9312L19.9621 66.4238C19.9965 66.011 20.0966 65.6108 20.2566 65.2462C20.4166 64.8815 20.6334 64.5598 20.8943 64.2996C21.1553 64.0394 21.4554 63.8458 21.7771 63.73C22.0989 63.6143 22.436 63.5787 22.7689 63.6252C23.1018 63.6718 23.424 63.7996 23.7168 64.0013C24.0097 64.203 24.2673 64.4746 24.4749 64.8003C24.6824 65.1261 24.8358 65.4996 24.9261 65.8992C25.0165 66.2988 25.042 66.7166 25.0012 67.1285L25.1744 72.7999C25.1794 72.9623 25.156 73.1241 25.1059 73.2743C25.0558 73.4246 24.9802 73.5596 24.8841 73.6704C24.7881 73.7811 24.6739 73.8649 24.5493 73.9161C24.4248 73.9672 24.2928 73.9845 24.1623 73.9668L24.1617 73.9664Z" fill="#FFBD59"/>
<path d="M34.7596 91.2805C34.9478 91.0752 35.0974 90.8214 35.1979 90.5368C35.2984 90.2522 35.3473 89.9437 35.3411 89.6332C35.3349 89.3227 35.2738 89.0176 35.1621 88.7395C35.0505 88.4613 34.8909 88.2169 34.6947 88.0234L33.5653 69.6611L30.2456 70.5867L32.1937 88.4688C31.9528 88.8985 31.8476 89.4228 31.8981 89.9422C31.9485 90.4616 32.1511 90.94 32.4674 91.2867C32.7837 91.6334 33.1917 91.8243 33.6141 91.8231C34.0365 91.822 34.4439 91.6289 34.7589 91.2805H34.7596Z" fill="#A0616A"/>
<path d="M28.973 72.8121C28.877 72.7015 28.8013 72.5664 28.7512 72.4163C28.7011 72.2661 28.6777 72.1043 28.6827 71.9419L28.856 66.2705C28.8186 65.8607 28.8468 65.4458 28.9389 65.0495C29.031 64.6532 29.1852 64.2832 29.3928 63.9607C29.6003 63.6383 29.8571 63.3695 30.1485 63.17C30.4399 62.9704 30.7602 62.8439 31.091 62.7976C31.4219 62.7513 31.7569 62.7862 32.0769 62.9003C32.3968 63.0144 32.6955 63.2054 32.9559 63.4624C33.2163 63.7195 33.4332 64.0376 33.5944 64.3985C33.7555 64.7594 33.8577 65.156 33.895 65.5658L35.0617 71.0732C35.095 71.2304 35.1006 71.3946 35.078 71.5547C35.0554 71.7148 35.0053 71.867 34.9309 72.0009C34.8566 72.1348 34.7598 72.2473 34.6472 72.3307C34.5346 72.4141 34.4088 72.4664 34.2784 72.4842L29.6955 73.1084C29.565 73.1262 29.433 73.1089 29.3084 73.0577C29.1838 73.0065 29.0697 72.9226 28.9737 72.8117L28.973 72.8121Z" fill="#FFBD59"/>
<path d="M26.4194 58.6896C26.3495 58.6896 26.2798 58.6796 26.2118 58.6597L26.1918 58.6538C22.7436 58.0011 21.9814 55.5265 21.8142 54.4935C21.6411 53.4239 21.8381 52.3915 22.2837 51.9904C22.0408 51.041 22.0797 50.1983 22.3997 49.4861C22.9586 48.244 24.1692 47.8247 24.3319 47.7725C25.2993 46.8886 26.4567 47.4786 26.6673 47.5983C28.5387 46.7409 29.2543 47.4545 29.3833 47.6139C30.2197 47.8 30.7296 48.2001 30.8989 48.8037C31.2168 49.9372 30.2114 51.3472 30.1685 51.4067L30.1461 51.4376L28.6482 51.526C28.5061 51.5344 28.367 51.5797 28.2399 51.659C28.1128 51.7383 28.0006 51.8498 27.9106 51.9862C27.8205 52.1227 27.7546 52.281 27.7172 52.4511C27.6797 52.6211 27.6715 52.799 27.6932 52.9732C27.7337 53.1979 27.7849 53.4194 27.8465 53.6367C28.102 54.6268 28.2936 55.4727 28.0467 55.7943C27.9907 55.8565 27.9217 55.8979 27.8476 55.9139C27.7734 55.9298 27.6972 55.9195 27.6275 55.8843C27.3933 55.8068 27.2344 55.823 27.1552 55.9327C27.0322 56.1026 27.0697 56.533 27.2609 57.1441C27.3209 57.3374 27.337 57.5474 27.3076 57.7512C27.2781 57.955 27.2042 58.145 27.0939 58.3006C27.0108 58.422 26.9074 58.5196 26.7909 58.5868C26.6744 58.6539 26.5475 58.689 26.419 58.6896H26.4194Z" fill="#2F2E41"/>
</g>
<defs>
<clipPath id="clip0_4_86">
<rect width="128" height="128" fill="white"/>
</clipPath>
</defs>
</svg>
